# Blender v2.79 (sub 0) OBJ File: 'GameEnvironment.blend'
# www.blender.org
mtllib Ground.mtl
v 16.000000 0.000000 -16.000000
v -16.000000 0.000000 -16.000000
v 16.000000 0.000000 16.000000
v -16.000000 0.000000 16.000000
v 16.000000 0.000000 5.333333
v 16.000000 0.000000 -5.333333
v 5.333333 0.000000 -16.000000
v -5.333333 0.000000 -16.000000
v -16.000000 0.000000 -5.333333
v -16.000000 0.000000 5.333333
v -5.333333 0.000000 16.000000
v 5.333333 0.000000 16.000000
v 5.333333 0.000000 -5.333333
v 5.333333 0.000000 5.333333
v -5.333333 0.000000 -5.333333
v -5.333333 0.000000 5.333333
v 16.000000 4.000000 -16.000000
v -16.000000 4.000000 -16.000000
v 16.000000 4.000000 16.000000
v -16.000000 4.000000 16.000000
v 16.000000 4.000000 5.333333
v 16.000000 4.000000 -5.333333
v 5.333333 4.000000 -16.000000
v -5.333333 4.000000 -16.000000
v -16.000000 4.000000 -5.333333
v -16.000000 4.000000 5.333333
v -5.333333 4.000000 16.000000
v 5.333333 4.000000 16.000000
v 16.000000 4.000000 16.000000
v 16.000000 4.000000 -16.000000
v -16.000000 4.000000 -16.000000
v -16.000000 4.000000 16.000000
v 15.652913 4.000000 15.652913
v 15.652913 4.000000 -15.652913
v -15.652913 4.000000 -15.652913
v -15.652913 4.000000 15.652913
v 15.652913 4.513605 15.652913
v 15.652913 4.513605 -15.652913
v -15.652913 4.513605 -15.652913
v -15.652913 4.513605 15.652913
v 17.541075 4.513605 17.541075
v 17.541075 4.513605 -17.541075
v -17.541075 4.513605 -17.541075
v -17.541075 4.513605 17.541075
v 17.541075 0.134553 17.541075
v 17.541075 0.134553 -17.541075
v -17.541075 0.134553 -17.541075
v -17.541075 0.134553 17.541075
v -16.000000 4.000000 -8.000000
v -16.000000 4.000000 0.000000
v -16.000000 4.000000 8.000000
v -15.652913 4.000000 -7.826457
v -15.652913 4.000000 0.000000
v -15.652913 4.000000 7.826457
v -15.652913 4.513605 -7.826457
v -15.652913 4.513605 0.000000
v -15.652913 4.513605 7.826457
v -17.541075 4.513605 -8.770537
v -17.541075 4.513605 0.000000
v -17.541075 4.513605 8.770537
v -17.541075 0.134553 -8.770537
v -17.541075 0.134553 0.000000
v -17.541075 0.134553 8.770537
v 8.000000 4.000000 -16.000000
v 0.000000 4.000000 -16.000000
v -8.000000 4.000000 -16.000000
v 7.826457 4.000000 -15.652913
v -0.000000 4.000000 -15.652913
v -7.826457 4.000000 -15.652913
v 7.826457 4.513605 -15.652913
v -0.000000 4.513605 -15.652913
v -7.826457 4.513605 -15.652913
v 8.770537 4.513605 -17.541075
v 0.000000 4.513605 -17.541075
v -8.770537 4.513605 -17.541075
v 8.770537 0.134553 -17.541075
v 0.000000 0.134553 -17.541075
v -8.770537 0.134553 -17.541075
v 16.000000 4.000000 8.000000
v 16.000000 4.000000 0.000000
v 16.000000 4.000000 -8.000000
v 15.652913 4.000000 7.826457
v 15.652913 4.000000 -0.000000
v 15.652913 4.000000 -7.826457
v 15.652913 4.513605 7.826457
v 15.652913 4.513605 -0.000000
v 15.652913 4.513605 -7.826457
v 17.541075 4.513605 8.770537
v 17.541075 4.513605 0.000000
v 17.541075 4.513605 -8.770537
v 17.541075 0.134553 8.770537
v 17.541075 0.134553 0.000000
v 17.541075 0.134553 -8.770537
v -8.000000 4.000000 16.000000
v 0.000000 4.000000 16.000000
v 8.000000 4.000000 16.000000
v -7.826457 4.000000 15.652913
v 0.000000 4.000000 15.652913
v 7.826457 4.000000 15.652913
v -7.826457 4.513605 15.652913
v 0.000000 4.513605 15.652913
v 7.826457 4.513605 15.652913
v -8.770537 4.513605 17.541075
v 0.000000 4.513605 17.541075
v 8.770537 4.513605 17.541075
v -8.770537 0.134553 17.541075
v 0.000000 0.134553 17.541075
v 8.770537 0.134553 17.541075
vt 1.000000 0.500000
vt 0.500000 1.000000
vt 0.500000 0.500000
vt 1.000000 0.500000
vt 0.500000 1.000000
vt 0.500000 0.500000
vt 1.000000 0.500000
vt 0.500000 1.000000
vt 0.500000 0.500000
vt 1.000000 0.500000
vt 0.500000 1.000000
vt 0.500000 0.500000
vt 1.000000 0.500000
vt 0.500000 1.000000
vt 0.500000 0.500000
vt 1.000000 0.500000
vt 0.500000 1.000000
vt 0.500000 0.500000
vt 1.000000 0.500000
vt 0.500000 1.000000
vt 0.500000 0.500000
vt 1.000000 0.500000
vt 0.500000 1.000000
vt 0.500000 0.500000
vt 1.000000 0.500000
vt 0.500000 1.000000
vt 0.500000 0.500000
vt 0.500000 0.125000
vt 0.000000 0.375000
vt 0.000000 0.125000
vt 0.500000 0.125000
vt 0.000000 0.375000
vt 0.000000 0.125000
vt 0.500000 0.125000
vt 0.000000 0.375000
vt 0.000000 0.125000
vt 0.500000 0.125000
vt 0.000000 0.375000
vt 0.000000 0.125000
vt 0.500000 0.125000
vt 0.000000 0.375000
vt 0.000000 0.125000
vt 0.500000 0.125000
vt 0.000000 0.375000
vt 0.000000 0.125000
vt 0.500000 0.125000
vt 0.000000 0.375000
vt 0.000000 0.125000
vt 0.500000 0.125000
vt 0.000000 0.375000
vt 0.000000 0.125000
vt 0.500000 0.125000
vt 0.000000 0.375000
vt 0.000000 0.125000
vt 0.500000 0.125000
vt 0.000000 0.375000
vt 0.000000 0.125000
vt 0.500000 0.125000
vt 0.000000 0.375000
vt 0.000000 0.125000
vt 0.500000 0.125000
vt 0.000000 0.375000
vt 0.000000 0.125000
vt 0.000000 0.500000
vt 0.500000 1.000000
vt 0.000000 1.000000
vt 0.000000 0.500000
vt 0.500000 1.000000
vt 0.000000 1.000000
vt 0.000000 0.500000
vt 0.500000 1.000000
vt 0.000000 1.000000
vt 0.000000 0.500000
vt 0.500000 1.000000
vt 0.000000 1.000000
vt 0.500000 0.500000
vt 0.000000 1.000000
vt 0.000000 0.500000
vt 0.500000 0.500000
vt 0.000000 1.000000
vt 0.000000 0.500000
vt 0.500000 0.500000
vt 0.000000 1.000000
vt 0.000000 0.500000
vt 0.500000 0.500000
vt 0.000000 1.000000
vt 0.000000 0.500000
vt 0.500000 0.500000
vt 0.000000 1.000000
vt 0.000000 0.500000
vt 0.500000 0.500000
vt 0.000000 1.000000
vt 0.000000 0.500000
vt 0.500000 0.500000
vt 0.000000 1.000000
vt 0.000000 0.500000
vt 0.500000 0.500000
vt 0.000000 1.000000
vt 0.000000 0.500000
vt 0.500000 0.500000
vt 0.000000 1.000000
vt 0.000000 0.500000
vt 0.500000 0.500000
vt 0.000000 1.000000
vt 0.000000 0.500000
vt 0.500000 0.500000
vt 0.000000 1.000000
vt 0.000000 0.500000
vt 0.500000 0.500000
vt 0.000000 1.000000
vt 0.000000 0.500000
vt 0.500000 0.500000
vt 0.000000 1.000000
vt 0.000000 0.500000
vt 0.500000 0.500000
vt 0.000000 1.000000
vt 0.000000 0.500000
vt 0.500000 0.500000
vt 0.000000 1.000000
vt 0.000000 0.500000
vt 0.000000 0.500000
vt 0.500000 1.000000
vt 0.000000 1.000000
vt 0.000000 0.500000
vt 0.500000 1.000000
vt 0.000000 1.000000
vt 0.500000 0.500000
vt 0.000000 1.000000
vt 0.000000 0.500000
vt 0.500000 0.500000
vt 0.000000 1.000000
vt 0.000000 0.500000
vt 0.500000 0.500000
vt 0.000000 1.000000
vt 0.000000 0.500000
vt 0.500000 0.500000
vt 0.000000 1.000000
vt 0.000000 0.500000
vt 0.500000 0.500000
vt 0.000000 1.000000
vt 0.000000 0.500000
vt 0.500000 0.500000
vt 0.000000 1.000000
vt 0.000000 0.500000
vt 0.000000 0.500000
vt 0.500000 1.000000
vt 0.000000 1.000000
vt 0.500000 0.500000
vt 0.000000 1.000000
vt 0.000000 0.500000
vt 0.500000 0.500000
vt 0.000000 1.000000
vt 0.000000 0.500000
vt 0.500000 0.500000
vt 0.000000 1.000000
vt 0.000000 0.500000
vt 0.000000 0.500000
vt 0.500000 1.000000
vt 0.000000 1.000000
vt 0.000000 0.500000
vt 0.500000 1.000000
vt 0.000000 1.000000
vt 0.500000 0.500000
vt 0.000000 1.000000
vt 0.000000 0.500000
vt 0.500000 0.500000
vt 0.000000 1.000000
vt 0.000000 0.500000
vt 0.500000 0.500000
vt 0.000000 1.000000
vt 0.000000 0.500000
vt 0.500000 0.500000
vt 0.000000 1.000000
vt 0.000000 0.500000
vt 0.500000 0.500000
vt 0.000000 1.000000
vt 0.000000 0.500000
vt 0.500000 0.500000
vt 0.000000 1.000000
vt 0.000000 0.500000
vt 0.000000 0.500000
vt 0.500000 1.000000
vt 0.000000 1.000000
vt 0.500000 0.500000
vt 0.000000 1.000000
vt 0.000000 0.500000
vt 0.500000 0.500000
vt 0.000000 1.000000
vt 0.000000 0.500000
vt 0.500000 0.500000
vt 0.000000 1.000000
vt 0.000000 0.500000
vt 0.000000 0.500000
vt 0.500000 1.000000
vt 0.000000 1.000000
vt 0.000000 0.500000
vt 0.500000 1.000000
vt 0.000000 1.000000
vt 0.500000 0.500000
vt 0.000000 1.000000
vt 0.000000 0.500000
vt 0.500000 0.500000
vt 0.000000 1.000000
vt 0.000000 0.500000
vt 0.500000 0.500000
vt 0.000000 1.000000
vt 0.000000 0.500000
vt 0.500000 0.500000
vt 0.000000 1.000000
vt 0.000000 0.500000
vt 0.500000 0.500000
vt 0.000000 1.000000
vt 0.000000 0.500000
vt 0.500000 0.500000
vt 0.000000 1.000000
vt 0.000000 0.500000
vt 0.000000 0.500000
vt 0.500000 1.000000
vt 0.000000 1.000000
vt 0.500000 0.500000
vt 0.000000 1.000000
vt 0.000000 0.500000
vt 0.500000 0.500000
vt 0.000000 1.000000
vt 0.000000 0.500000
vt 0.500000 0.500000
vt 0.000000 1.000000
vt 0.000000 0.500000
vt 0.000000 0.500000
vt 0.500000 1.000000
vt 0.000000 1.000000
vt 0.000000 0.500000
vt 0.500000 1.000000
vt 0.000000 1.000000
vt 0.500000 0.500000
vt 0.000000 1.000000
vt 0.000000 0.500000
vt 0.500000 0.500000
vt 0.000000 1.000000
vt 0.000000 0.500000
vt 0.500000 0.500000
vt 0.000000 1.000000
vt 0.000000 0.500000
vt 0.500000 0.500000
vt 0.000000 1.000000
vt 0.000000 0.500000
vt 0.500000 0.500000
vt 0.000000 1.000000
vt 0.000000 0.500000
vt 0.500000 0.500000
vt 0.000000 1.000000
vt 0.000000 0.500000
vt 0.000000 0.500000
vt 0.500000 1.000000
vt 0.000000 1.000000
vt 1.000000 1.000000
vt 1.000000 1.000000
vt 1.000000 1.000000
vt 1.000000 1.000000
vt 1.000000 1.000000
vt 1.000000 1.000000
vt 1.000000 1.000000
vt 1.000000 1.000000
vt 1.000000 1.000000
vt 0.500000 0.375000
vt 0.500000 0.375000
vt 0.500000 0.375000
vt 0.500000 0.375000
vt 0.500000 0.375000
vt 0.500000 0.375000
vt 0.500000 0.375000
vt 0.500000 0.375000
vt 0.500000 0.375000
vt 0.500000 0.375000
vt 0.500000 0.375000
vt 0.500000 0.375000
vt 0.500000 0.500000
vt 0.500000 0.500000
vt 0.500000 0.500000
vt 0.500000 0.500000
vt 0.500000 1.000000
vt 0.500000 1.000000
vt 0.500000 1.000000
vt 0.500000 1.000000
vt 0.500000 1.000000
vt 0.500000 1.000000
vt 0.500000 1.000000
vt 0.500000 1.000000
vt 0.500000 1.000000
vt 0.500000 1.000000
vt 0.500000 1.000000
vt 0.500000 1.000000
vt 0.500000 1.000000
vt 0.500000 1.000000
vt 0.500000 1.000000
vt 0.500000 0.500000
vt 0.500000 0.500000
vt 0.500000 1.000000
vt 0.500000 1.000000
vt 0.500000 1.000000
vt 0.500000 1.000000
vt 0.500000 1.000000
vt 0.500000 1.000000
vt 0.500000 0.500000
vt 0.500000 1.000000
vt 0.500000 1.000000
vt 0.500000 1.000000
vt 0.500000 0.500000
vt 0.500000 0.500000
vt 0.500000 1.000000
vt 0.500000 1.000000
vt 0.500000 1.000000
vt 0.500000 1.000000
vt 0.500000 1.000000
vt 0.500000 1.000000
vt 0.500000 0.500000
vt 0.500000 1.000000
vt 0.500000 1.000000
vt 0.500000 1.000000
vt 0.500000 0.500000
vt 0.500000 0.500000
vt 0.500000 1.000000
vt 0.500000 1.000000
vt 0.500000 1.000000
vt 0.500000 1.000000
vt 0.500000 1.000000
vt 0.500000 1.000000
vt 0.500000 0.500000
vt 0.500000 1.000000
vt 0.500000 1.000000
vt 0.500000 1.000000
vt 0.500000 0.500000
vt 0.500000 0.500000
vt 0.500000 1.000000
vt 0.500000 1.000000
vt 0.500000 1.000000
vt 0.500000 1.000000
vt 0.500000 1.000000
vt 0.500000 1.000000
vt 0.500000 0.500000
vn 0.0000 1.0000 0.0000
vn -1.0000 0.0000 0.0000
vn 0.0000 0.0000 -1.0000
vn 0.0000 0.0000 1.0000
vn 1.0000 0.0000 0.0000
vn 0.0000 -1.0000 0.0000
usemtl Brick
s off
f 10/1/1 11/2/1 16/3/1
f 14/4/1 3/5/1 5/6/1
f 16/7/1 12/8/1 14/9/1
f 7/10/1 6/11/1 1/12/1
f 13/13/1 5/14/1 6/15/1
f 8/16/1 13/17/1 7/18/1
f 15/19/1 14/20/1 13/21/1
f 2/22/1 15/23/1 8/24/1
f 9/25/1 16/26/1 15/27/1
f 3/28/2 21/29/2 5/30/2
f 11/31/3 28/32/3 12/33/3
f 8/34/4 18/35/4 2/36/4
f 2/37/5 25/38/5 9/39/5
f 5/40/2 22/41/2 6/42/2
f 10/43/5 20/44/5 4/45/5
f 9/46/5 26/47/5 10/48/5
f 1/49/4 23/50/4 7/51/4
f 12/52/3 19/53/3 3/54/3
f 4/55/3 27/56/3 11/57/3
f 6/58/2 17/59/2 1/60/2
f 7/61/4 24/62/4 8/63/4
f 96/64/6 33/65/6 29/66/6
f 66/67/6 35/68/6 31/69/6
f 51/70/6 36/71/6 32/72/6
f 81/73/6 34/74/6 30/75/6
f 57/76/5 36/77/5 54/78/5
f 87/79/2 34/80/2 84/81/2
f 102/82/3 33/83/3 99/84/3
f 72/85/4 35/86/4 69/87/4
f 90/88/1 38/89/1 87/90/1
f 105/91/1 37/92/1 102/93/1
f 75/94/1 39/95/1 72/96/1
f 60/97/1 40/98/1 57/99/1
f 108/100/4 41/101/4 105/102/4
f 78/103/3 43/104/3 75/105/3
f 63/106/2 44/107/2 60/108/2
f 93/109/5 42/110/5 90/111/5
f 47/112/2 58/113/2 43/114/2
f 61/115/2 59/116/2 58/117/2
f 62/118/2 60/119/2 59/120/2
f 39/121/1 58/122/1 55/123/1
f 55/124/1 59/125/1 56/126/1
f 59/127/1 57/128/1 56/129/1
f 39/130/5 52/131/5 35/132/5
f 55/133/5 53/134/5 52/135/5
f 56/136/5 54/137/5 53/138/5
f 35/139/6 49/140/6 31/141/6
f 52/142/6 50/143/6 49/144/6
f 50/145/6 54/146/6 51/147/6
f 46/148/3 73/149/3 42/150/3
f 76/151/3 74/152/3 73/153/3
f 77/154/3 75/155/3 74/156/3
f 38/157/1 73/158/1 70/159/1
f 70/160/1 74/161/1 71/162/1
f 74/163/1 72/164/1 71/165/1
f 38/166/4 67/167/4 34/168/4
f 70/169/4 68/170/4 67/171/4
f 71/172/4 69/173/4 68/174/4
f 34/175/6 64/176/6 30/177/6
f 67/178/6 65/179/6 64/180/6
f 65/181/6 69/182/6 66/183/6
f 45/184/5 88/185/5 41/186/5
f 91/187/5 89/188/5 88/189/5
f 92/190/5 90/191/5 89/192/5
f 37/193/1 88/194/1 85/195/1
f 85/196/1 89/197/1 86/198/1
f 89/199/1 87/200/1 86/201/1
f 37/202/2 82/203/2 33/204/2
f 85/205/2 83/206/2 82/207/2
f 86/208/2 84/209/2 83/210/2
f 33/211/6 79/212/6 29/213/6
f 82/214/6 80/215/6 79/216/6
f 80/217/6 84/218/6 81/219/6
f 48/220/4 103/221/4 44/222/4
f 106/223/4 104/224/4 103/225/4
f 107/226/4 105/227/4 104/228/4
f 40/229/1 103/230/1 100/231/1
f 100/232/1 104/233/1 101/234/1
f 104/235/1 102/236/1 101/237/1
f 40/238/3 97/239/3 36/240/3
f 100/241/3 98/242/3 97/243/3
f 101/244/3 99/245/3 98/246/3
f 36/247/6 94/248/6 32/249/6
f 97/250/6 95/251/6 94/252/6
f 95/253/6 99/254/6 96/255/6
f 10/1/1 4/256/1 11/2/1
f 14/4/1 12/257/1 3/5/1
f 16/7/1 11/258/1 12/8/1
f 7/10/1 13/259/1 6/11/1
f 13/13/1 14/260/1 5/14/1
f 8/16/1 15/261/1 13/17/1
f 15/19/1 16/262/1 14/20/1
f 2/22/1 9/263/1 15/23/1
f 9/25/1 10/264/1 16/26/1
f 3/28/2 19/265/2 21/29/2
f 11/31/3 27/266/3 28/32/3
f 8/34/4 24/267/4 18/35/4
f 2/37/5 18/268/5 25/38/5
f 5/40/2 21/269/2 22/41/2
f 10/43/5 26/270/5 20/44/5
f 9/46/5 25/271/5 26/47/5
f 1/49/4 17/272/4 23/50/4
f 12/52/3 28/273/3 19/53/3
f 4/55/3 20/274/3 27/56/3
f 6/58/2 22/275/2 17/59/2
f 7/61/4 23/276/4 24/62/4
f 96/64/6 99/277/6 33/65/6
f 66/67/6 69/278/6 35/68/6
f 51/70/6 54/279/6 36/71/6
f 81/73/6 84/280/6 34/74/6
f 57/76/5 40/281/5 36/77/5
f 87/79/2 38/282/2 34/80/2
f 102/82/3 37/283/3 33/83/3
f 72/85/4 39/284/4 35/86/4
f 90/88/1 42/285/1 38/89/1
f 105/91/1 41/286/1 37/92/1
f 75/94/1 43/287/1 39/95/1
f 60/97/1 44/288/1 40/98/1
f 108/100/4 45/289/4 41/101/4
f 78/103/3 47/290/3 43/104/3
f 63/106/2 48/291/2 44/107/2
f 93/109/5 46/292/5 42/110/5
f 47/112/2 61/293/2 58/113/2
f 61/115/2 62/294/2 59/116/2
f 62/118/2 63/295/2 60/119/2
f 39/121/1 43/296/1 58/122/1
f 55/124/1 58/297/1 59/125/1
f 59/127/1 60/298/1 57/128/1
f 39/130/5 55/299/5 52/131/5
f 55/133/5 56/300/5 53/134/5
f 56/136/5 57/301/5 54/137/5
f 35/139/6 52/302/6 49/140/6
f 52/142/6 53/303/6 50/143/6
f 50/145/6 53/304/6 54/146/6
f 46/148/3 76/305/3 73/149/3
f 76/151/3 77/306/3 74/152/3
f 77/154/3 78/307/3 75/155/3
f 38/157/1 42/308/1 73/158/1
f 70/160/1 73/309/1 74/161/1
f 74/163/1 75/310/1 72/164/1
f 38/166/4 70/311/4 67/167/4
f 70/169/4 71/312/4 68/170/4
f 71/172/4 72/313/4 69/173/4
f 34/175/6 67/314/6 64/176/6
f 67/178/6 68/315/6 65/179/6
f 65/181/6 68/316/6 69/182/6
f 45/184/5 91/317/5 88/185/5
f 91/187/5 92/318/5 89/188/5
f 92/190/5 93/319/5 90/191/5
f 37/193/1 41/320/1 88/194/1
f 85/196/1 88/321/1 89/197/1
f 89/199/1 90/322/1 87/200/1
f 37/202/2 85/323/2 82/203/2
f 85/205/2 86/324/2 83/206/2
f 86/208/2 87/325/2 84/209/2
f 33/211/6 82/326/6 79/212/6
f 82/214/6 83/327/6 80/215/6
f 80/217/6 83/328/6 84/218/6
f 48/220/4 106/329/4 103/221/4
f 106/223/4 107/330/4 104/224/4
f 107/226/4 108/331/4 105/227/4
f 40/229/1 44/332/1 103/230/1
f 100/232/1 103/333/1 104/233/1
f 104/235/1 105/334/1 102/236/1
f 40/238/3 100/335/3 97/239/3
f 100/241/3 101/336/3 98/242/3
f 101/244/3 102/337/3 99/245/3
f 36/247/6 97/338/6 94/248/6
f 97/250/6 98/339/6 95/251/6
f 95/253/6 98/340/6 99/254/6
